<svg id="visual" viewBox="0 0 900 600" width="900" height="600" xmlns="http://www.w3.org/2000/svg" xmlns:xlink="http://www.w3.org/1999/xlink" version="1.1"><g transform="translate(480.0610239720173 273.07353039374027)"><path d="M81.8 -117.3C97 -101.6 94.2 -65.6 105.1 -33.7C116 -1.9 140.8 26 139.1 49.5C137.4 73.1 109.2 92.4 81.7 120.9C54.1 149.4 27 187.2 4.9 180.5C-17.2 173.7 -34.5 122.5 -70 96.5C-105.5 70.5 -159.3 69.9 -183.6 47.3C-208 24.7 -202.9 -19.8 -175.7 -42.7C-148.4 -65.6 -99 -66.9 -66 -76.9C-33.1 -86.8 -16.5 -105.4 8.4 -117C33.3 -128.5 66.6 -133 81.8 -117.3" fill="#C7D2FF"></path></g></svg>