<svg id="visual" viewBox="0 0 900 600" width="900" height="600" xmlns="http://www.w3.org/2000/svg" xmlns:xlink="http://www.w3.org/1999/xlink" version="1.1"><g transform="translate(457.3230997449412 278.3331541919556)"><path d="M54 -71.3C74.9 -59.1 100.2 -49.9 118 -30.1C135.7 -10.3 145.8 20.2 133.6 39C121.4 57.8 86.9 64.9 60.9 93.8C34.9 122.7 17.4 173.3 -10.9 188.3C-39.2 203.3 -78.4 182.5 -107.5 154.7C-136.7 126.8 -155.8 91.8 -153.4 59.3C-150.9 26.8 -126.8 -3.3 -119.7 -43.1C-112.6 -82.9 -122.4 -132.5 -105.3 -145.9C-88.2 -159.4 -44.1 -136.7 -13.8 -117.7C16.5 -98.8 33.1 -83.5 54 -71.3" fill="#A684FF"></path></g></svg>